<?xml version="1.0" encoding="UTF-8" standalone="no"?>
<!DOCTYPE svg PUBLIC "-//W3C//DTD SVG 1.1//EN"
 "http://www.w3.org/Graphics/SVG/1.1/DTD/svg11.dtd">
<!-- Generated by graphviz version 2.40.1 (20161225.0304)
 -->
<!-- Title: dependencies Pages: 1 -->
<svg width="3613pt" height="284pt"
 viewBox="0.00 0.00 3613.00 284.00" xmlns="http://www.w3.org/2000/svg" xmlns:xlink="http://www.w3.org/1999/xlink">
<g id="graph0" class="graph" transform="scale(1 1) rotate(0) translate(4 280)">
<title>dependencies</title>
<polygon fill="#ffffff" stroke="transparent" points="-4,4 -4,-280 3609,-280 3609,4 -4,4"/>
<text text-anchor="start" x="1781.5091" y="-42.4" font-family="sans-serif" font-weight="bold" font-size="14.00" fill="#000000">Legend</text>
<polygon fill="#ffffb3" stroke="transparent" points="1568.5,-10 1568.5,-30 1588.5,-30 1588.5,-10 1568.5,-10"/>
<text text-anchor="start" x="1592.129" y="-15.4" font-family="sans-serif" font-size="14.00" fill="#000000"> &#160;Declarations</text>
<polygon fill="#8dd3c7" stroke="transparent" points="1681.5,-10 1681.5,-30 1701.5,-30 1701.5,-10 1681.5,-10"/>
<text text-anchor="start" x="1705.2251" y="-15.4" font-family="sans-serif" font-size="14.00" fill="#000000"> &#160;Module</text>
<polygon fill="#80b1d3" stroke="transparent" points="1767.5,-10 1767.5,-30 1787.5,-30 1787.5,-10 1767.5,-10"/>
<text text-anchor="start" x="1791.2812" y="-15.4" font-family="sans-serif" font-size="14.00" fill="#000000"> &#160;Bootstrap</text>
<polygon fill="#fdb462" stroke="transparent" points="1864.5,-10 1864.5,-30 1884.5,-30 1884.5,-10 1864.5,-10"/>
<text text-anchor="start" x="1888.1732" y="-15.4" font-family="sans-serif" font-size="14.00" fill="#000000"> &#160;Providers</text>
<polygon fill="#fb8072" stroke="transparent" points="1960.5,-10 1960.5,-30 1980.5,-30 1980.5,-10 1960.5,-10"/>
<text text-anchor="start" x="1984.2258" y="-15.4" font-family="sans-serif" font-size="14.00" fill="#000000"> &#160;Exports</text>
<g id="clust1" class="cluster">
<title>cluster_SharedModule</title>
<polygon fill="none" stroke="#000000" stroke-dasharray="1,5" points="8,-70 8,-268 3597,-268 3597,-70 8,-70"/>
</g>
<g id="clust2" class="cluster">
<title>cluster_SharedModule_declarations</title>
<polygon fill="none" stroke="#000000" points="2039,-78 2039,-130 3589,-130 3589,-78 2039,-78"/>
</g>
<g id="clust12" class="cluster">
<title>cluster_SharedModule_imports</title>
<polygon fill="none" stroke="#000000" points="648,-78 648,-130 2031,-130 2031,-78 648,-78"/>
</g>
<g id="clust13" class="cluster">
<title>cluster_SharedModule_exports</title>
<polygon fill="none" stroke="#000000" points="37,-208 37,-260 3157,-260 3157,-208 37,-208"/>
</g>
<g id="clust15" class="cluster">
<title>cluster_SharedModule_providers</title>
<polygon fill="none" stroke="#000000" points="16,-78 16,-130 640,-130 640,-78 16,-78"/>
</g>
<!-- NoProductsFoundComponent -->
<g id="node1" class="node">
<title>NoProductsFoundComponent</title>
<polygon fill="#ffffb3" stroke="#000000" points="3580.7147,-122 3397.2853,-122 3397.2853,-86 3580.7147,-86 3580.7147,-122"/>
<text text-anchor="middle" x="3489" y="-99.8" font-family="Times,serif" font-size="14.00" fill="#000000">NoProductsFoundComponent</text>
</g>
<!-- SharedModule -->
<g id="node10" class="node">
<title>SharedModule</title>
<polygon fill="#8dd3c7" stroke="#000000" points="1820.4231,-187 1817.4231,-191 1796.4231,-191 1793.4231,-187 1721.5769,-187 1721.5769,-151 1820.4231,-151 1820.4231,-187"/>
<text text-anchor="middle" x="1771" y="-164.8" font-family="Times,serif" font-size="14.00" fill="#000000">SharedModule</text>
</g>
<!-- NoProductsFoundComponent&#45;&gt;SharedModule -->
<g id="edge1" class="edge">
<title>NoProductsFoundComponent&#45;&gt;SharedModule</title>
<path fill="none" stroke="#000000" d="M3489,-122.1061C3489,-141.3391 3489,-169 3489,-169 3489,-169 1830.5636,-169 1830.5636,-169"/>
<polygon fill="#000000" stroke="#000000" points="1830.5637,-165.5001 1820.5636,-169 1830.5636,-172.5001 1830.5637,-165.5001"/>
</g>
<!-- FilterByBrandPipe -->
<g id="node2" class="node">
<title>FilterByBrandPipe</title>
<polygon fill="#ffffb3" stroke="#000000" points="3379.766,-122 3258.234,-122 3258.234,-86 3379.766,-86 3379.766,-122"/>
<text text-anchor="middle" x="3319" y="-99.8" font-family="Times,serif" font-size="14.00" fill="#000000">FilterByBrandPipe</text>
</g>
<!-- FilterByBrandPipe&#45;&gt;SharedModule -->
<g id="edge2" class="edge">
<title>FilterByBrandPipe&#45;&gt;SharedModule</title>
<path fill="none" stroke="#000000" d="M3319,-122.2222C3319,-140.8285 3319,-167 3319,-167 3319,-167 1830.3175,-167 1830.3175,-167"/>
<polygon fill="#000000" stroke="#000000" points="1830.3175,-163.5001 1820.3175,-167 1830.3175,-170.5001 1830.3175,-163.5001"/>
</g>
<!-- FilterByCategoryPipe -->
<g id="node3" class="node">
<title>FilterByCategoryPipe</title>
<polygon fill="#ffffb3" stroke="#000000" points="3240.3711,-122 3101.6289,-122 3101.6289,-86 3240.3711,-86 3240.3711,-122"/>
<text text-anchor="middle" x="3171" y="-99.8" font-family="Times,serif" font-size="14.00" fill="#000000">FilterByCategoryPipe</text>
</g>
<!-- FilterByCategoryPipe&#45;&gt;SharedModule -->
<g id="edge3" class="edge">
<title>FilterByCategoryPipe&#45;&gt;SharedModule</title>
<path fill="none" stroke="#000000" d="M3125.4609,-122.302C3125.4609,-140.2699 3125.4609,-165 3125.4609,-165 3125.4609,-165 1830.4085,-165 1830.4085,-165"/>
<polygon fill="#000000" stroke="#000000" points="1830.4085,-161.5001 1820.4085,-165 1830.4085,-168.5001 1830.4085,-161.5001"/>
</g>
<!-- FilterByPricePipe -->
<g id="node4" class="node">
<title>FilterByPricePipe</title>
<polygon fill="#ffffb3" stroke="#000000" points="3083.3174,-122 2966.6826,-122 2966.6826,-86 3083.3174,-86 3083.3174,-122"/>
<text text-anchor="middle" x="3025" y="-99.8" font-family="Times,serif" font-size="14.00" fill="#000000">FilterByPricePipe</text>
</g>
<!-- FilterByPricePipe&#45;&gt;SharedModule -->
<g id="edge4" class="edge">
<title>FilterByPricePipe&#45;&gt;SharedModule</title>
<path fill="none" stroke="#000000" d="M3044.3862,-122.0225C3044.3862,-139.3734 3044.3862,-163 3044.3862,-163 3044.3862,-163 1830.5274,-163 1830.5274,-163"/>
<polygon fill="#000000" stroke="#000000" points="1830.5275,-159.5001 1820.5274,-163 1830.5274,-166.5001 1830.5275,-159.5001"/>
</g>
<!-- CartCheckoutComponent -->
<g id="node5" class="node">
<title>CartCheckoutComponent</title>
<polygon fill="#ffffb3" stroke="#000000" points="2948.5912,-122 2789.4088,-122 2789.4088,-86 2948.5912,-86 2948.5912,-122"/>
<text text-anchor="middle" x="2869" y="-99.8" font-family="Times,serif" font-size="14.00" fill="#000000">CartCheckoutComponent</text>
</g>
<!-- CartCheckoutComponent&#45;&gt;SharedModule -->
<g id="edge5" class="edge">
<title>CartCheckoutComponent&#45;&gt;SharedModule</title>
<path fill="none" stroke="#000000" d="M2808.571,-122.0336C2808.571,-139.0597 2808.571,-162 2808.571,-162 2808.571,-162 1830.3462,-162 1830.3462,-162"/>
<polygon fill="#000000" stroke="#000000" points="1830.3462,-158.5001 1820.3462,-162 1830.3462,-165.5001 1830.3462,-158.5001"/>
</g>
<!-- ProductCounterComponent -->
<g id="node6" class="node">
<title>ProductCounterComponent</title>
<polygon fill="#ffffb3" stroke="#000000" points="2770.9832,-122 2601.0168,-122 2601.0168,-86 2770.9832,-86 2770.9832,-122"/>
<text text-anchor="middle" x="2686" y="-99.8" font-family="Times,serif" font-size="14.00" fill="#000000">ProductCounterComponent</text>
</g>
<!-- ProductCounterComponent&#45;&gt;SharedModule -->
<g id="edge6" class="edge">
<title>ProductCounterComponent&#45;&gt;SharedModule</title>
<path fill="none" stroke="#000000" d="M2630.7923,-122.027C2630.7923,-138.3976 2630.7923,-160 2630.7923,-160 2630.7923,-160 1830.3143,-160 1830.3143,-160"/>
<polygon fill="#000000" stroke="#000000" points="1830.3143,-156.5001 1820.3143,-160 1830.3142,-163.5001 1830.3143,-156.5001"/>
</g>
<!-- CartCheckoutSmallComponent -->
<g id="node7" class="node">
<title>CartCheckoutSmallComponent</title>
<polygon fill="#ffffb3" stroke="#000000" points="2582.7603,-122 2391.2397,-122 2391.2397,-86 2582.7603,-86 2582.7603,-122"/>
<text text-anchor="middle" x="2487" y="-99.8" font-family="Times,serif" font-size="14.00" fill="#000000">CartCheckoutSmallComponent</text>
</g>
<!-- CartCheckoutSmallComponent&#45;&gt;SharedModule -->
<g id="edge7" class="edge">
<title>CartCheckoutSmallComponent&#45;&gt;SharedModule</title>
<path fill="none" stroke="#000000" d="M2413.82,-122.2819C2413.82,-137.9478 2413.82,-158 2413.82,-158 2413.82,-158 1830.3736,-158 1830.3736,-158"/>
<polygon fill="#000000" stroke="#000000" points="1830.3737,-154.5001 1820.3736,-158 1830.3736,-161.5001 1830.3737,-154.5001"/>
</g>
<!-- PageNotFoundComponent -->
<g id="node8" class="node">
<title>PageNotFoundComponent</title>
<polygon fill="#ffffb3" stroke="#000000" points="2372.8243,-122 2207.1757,-122 2207.1757,-86 2372.8243,-86 2372.8243,-122"/>
<text text-anchor="middle" x="2290" y="-99.8" font-family="Times,serif" font-size="14.00" fill="#000000">PageNotFoundComponent</text>
</g>
<!-- PageNotFoundComponent&#45;&gt;SharedModule -->
<g id="edge8" class="edge">
<title>PageNotFoundComponent&#45;&gt;SharedModule</title>
<path fill="none" stroke="#000000" d="M2239.4855,-122.2396C2239.4855,-137.5706 2239.4855,-157 2239.4855,-157 2239.4855,-157 1830.2507,-157 1830.2507,-157"/>
<polygon fill="#000000" stroke="#000000" points="1830.2507,-153.5001 1820.2507,-157 1830.2507,-160.5001 1830.2507,-153.5001"/>
</g>
<!-- MomentTimeAgoPipe -->
<g id="node9" class="node">
<title>MomentTimeAgoPipe</title>
<polygon fill="#ffffb3" stroke="#000000" points="2188.9832,-122 2047.0168,-122 2047.0168,-86 2188.9832,-86 2188.9832,-122"/>
<text text-anchor="middle" x="2118" y="-99.8" font-family="Times,serif" font-size="14.00" fill="#000000">MomentTimeAgoPipe</text>
</g>
<!-- MomentTimeAgoPipe&#45;&gt;SharedModule -->
<g id="edge9" class="edge">
<title>MomentTimeAgoPipe&#45;&gt;SharedModule</title>
<path fill="none" stroke="#000000" d="M2087.597,-122.1243C2087.597,-136.7832 2087.597,-155 2087.597,-155 2087.597,-155 1830.4683,-155 1830.4683,-155"/>
<polygon fill="#000000" stroke="#000000" points="1830.4683,-151.5001 1820.4683,-155 1830.4682,-158.5001 1830.4683,-151.5001"/>
</g>
<!-- NoProductsFoundComponent  -->
<g id="node20" class="node">
<title>NoProductsFoundComponent </title>
<polygon fill="#fb8072" stroke="#000000" points="3149.2148,-252 2962.7852,-252 2962.7852,-216 3149.2148,-216 3149.2148,-252"/>
<text text-anchor="middle" x="3056" y="-229.8" font-family="Times,serif" font-size="14.00" fill="#000000">NoProductsFoundComponent </text>
</g>
<!-- SharedModule&#45;&gt;NoProductsFoundComponent  -->
<g id="edge19" class="edge">
<title>SharedModule&#45;&gt;NoProductsFoundComponent </title>
<path fill="none" stroke="#000000" stroke-dasharray="5,2" d="M1820.5432,-170C2050.8441,-170 3005.6138,-170 3005.6138,-170 3005.6138,-170 3005.6138,-205.8314 3005.6138,-205.8314"/>
<polygon fill="#000000" stroke="#000000" points="3002.1139,-205.8313 3005.6138,-215.8314 3009.1139,-205.8314 3002.1139,-205.8313"/>
</g>
<!-- FormsModule  -->
<g id="node21" class="node">
<title>FormsModule </title>
<polygon fill="#fb8072" stroke="#000000" points="2944.3283,-252 2845.6717,-252 2845.6717,-216 2944.3283,-216 2944.3283,-252"/>
<text text-anchor="middle" x="2895" y="-229.8" font-family="Times,serif" font-size="14.00" fill="#000000">FormsModule </text>
</g>
<!-- SharedModule&#45;&gt;FormsModule  -->
<g id="edge20" class="edge">
<title>SharedModule&#45;&gt;FormsModule </title>
<path fill="none" stroke="#000000" stroke-dasharray="5,2" d="M1820.3707,-172C2039.2722,-172 2911.4714,-172 2911.4714,-172 2911.4714,-172 2911.4714,-205.7333 2911.4714,-205.7333"/>
<polygon fill="#000000" stroke="#000000" points="2907.9715,-205.7333 2911.4714,-215.7333 2914.9715,-205.7333 2907.9715,-205.7333"/>
</g>
<!-- SharedModule&#45;&gt;FormsModule  -->
<g id="edge22" class="edge">
<title>SharedModule&#45;&gt;FormsModule </title>
<path fill="none" stroke="#000000" stroke-dasharray="5,2" d="M1820.3784,-174C2035.3023,-174 2878.5286,-174 2878.5286,-174 2878.5286,-174 2878.5286,-205.998 2878.5286,-205.998"/>
<polygon fill="#000000" stroke="#000000" points="2875.0287,-205.998 2878.5286,-215.998 2882.0287,-205.9981 2875.0287,-205.998"/>
</g>
<!-- MDBBootstrapModule  -->
<g id="node22" class="node">
<title>MDBBootstrapModule </title>
<polygon fill="#fb8072" stroke="#000000" points="2827.8757,-252 2678.1243,-252 2678.1243,-216 2827.8757,-216 2827.8757,-252"/>
<text text-anchor="middle" x="2753" y="-229.8" font-family="Times,serif" font-size="14.00" fill="#000000">MDBBootstrapModule </text>
</g>
<!-- SharedModule&#45;&gt;MDBBootstrapModule  -->
<g id="edge21" class="edge">
<title>SharedModule&#45;&gt;MDBBootstrapModule </title>
<path fill="none" stroke="#000000" stroke-dasharray="5,2" d="M1820.2643,-175C2015.5456,-175 2724.652,-175 2724.652,-175 2724.652,-175 2724.652,-205.9775 2724.652,-205.9775"/>
<polygon fill="#000000" stroke="#000000" points="2721.1521,-205.9774 2724.652,-215.9775 2728.1521,-205.9775 2721.1521,-205.9774"/>
</g>
<!-- RouterModule  -->
<g id="node23" class="node">
<title>RouterModule </title>
<polygon fill="#fb8072" stroke="#000000" points="2660.6523,-252 2559.3477,-252 2559.3477,-216 2660.6523,-216 2660.6523,-252"/>
<text text-anchor="middle" x="2610" y="-229.8" font-family="Times,serif" font-size="14.00" fill="#000000">RouterModule </text>
</g>
<!-- SharedModule&#45;&gt;RouterModule  -->
<g id="edge23" class="edge">
<title>SharedModule&#45;&gt;RouterModule </title>
<path fill="none" stroke="#000000" stroke-dasharray="5,2" d="M1820.4492,-177C1994.9004,-177 2571.152,-177 2571.152,-177 2571.152,-177 2571.152,-205.9648 2571.152,-205.9648"/>
<polygon fill="#000000" stroke="#000000" points="2567.6521,-205.9648 2571.152,-215.9648 2574.6521,-205.9649 2567.6521,-205.9648"/>
</g>
<!-- OwlModule  -->
<g id="node24" class="node">
<title>OwlModule </title>
<polygon fill="#fb8072" stroke="#000000" points="2541.6537,-252 2454.3463,-252 2454.3463,-216 2541.6537,-216 2541.6537,-252"/>
<text text-anchor="middle" x="2498" y="-229.8" font-family="Times,serif" font-size="14.00" fill="#000000">OwlModule </text>
</g>
<!-- SharedModule&#45;&gt;OwlModule  -->
<g id="edge24" class="edge">
<title>SharedModule&#45;&gt;OwlModule </title>
<path fill="none" stroke="#000000" stroke-dasharray="5,2" d="M1820.3981,-179C1984.0264,-179 2498,-179 2498,-179 2498,-179 2498,-205.9909 2498,-205.9909"/>
<polygon fill="#000000" stroke="#000000" points="2494.5001,-205.9909 2498,-215.9909 2501.5001,-205.991 2494.5001,-205.9909"/>
</g>
<!-- NgxPaginationModule  -->
<g id="node25" class="node">
<title>NgxPaginationModule </title>
<polygon fill="#fb8072" stroke="#000000" points="2436.54,-252 2289.46,-252 2289.46,-216 2436.54,-216 2436.54,-252"/>
<text text-anchor="middle" x="2363" y="-229.8" font-family="Times,serif" font-size="14.00" fill="#000000">NgxPaginationModule </text>
</g>
<!-- SharedModule&#45;&gt;NgxPaginationModule  -->
<g id="edge25" class="edge">
<title>SharedModule&#45;&gt;NgxPaginationModule </title>
<path fill="none" stroke="#000000" stroke-dasharray="5,2" d="M1820.2117,-181C1956.8794,-181 2331.071,-181 2331.071,-181 2331.071,-181 2331.071,-205.7604 2331.071,-205.7604"/>
<polygon fill="#000000" stroke="#000000" points="2327.5711,-205.7604 2331.071,-215.7604 2334.5711,-205.7604 2327.5711,-205.7604"/>
</g>
<!-- FilterByBrandPipe  -->
<g id="node26" class="node">
<title>FilterByBrandPipe </title>
<polygon fill="#fb8072" stroke="#000000" points="2271.7661,-252 2146.2339,-252 2146.2339,-216 2271.7661,-216 2271.7661,-252"/>
<text text-anchor="middle" x="2209" y="-229.8" font-family="Times,serif" font-size="14.00" fill="#000000">FilterByBrandPipe </text>
</g>
<!-- SharedModule&#45;&gt;FilterByBrandPipe  -->
<g id="edge26" class="edge">
<title>SharedModule&#45;&gt;FilterByBrandPipe </title>
<path fill="none" stroke="#000000" stroke-dasharray="5,2" d="M1820.4377,-182C1926.7745,-182 2167.6794,-182 2167.6794,-182 2167.6794,-182 2167.6794,-205.8129 2167.6794,-205.8129"/>
<polygon fill="#000000" stroke="#000000" points="2164.1794,-205.8129 2167.6794,-215.8129 2171.1794,-205.813 2164.1794,-205.8129"/>
</g>
<!-- FilterByCategoryPipe  -->
<g id="node27" class="node">
<title>FilterByCategoryPipe </title>
<polygon fill="#fb8072" stroke="#000000" points="2128.3715,-252 1985.6285,-252 1985.6285,-216 2128.3715,-216 2128.3715,-252"/>
<text text-anchor="middle" x="2057" y="-229.8" font-family="Times,serif" font-size="14.00" fill="#000000">FilterByCategoryPipe </text>
</g>
<!-- SharedModule&#45;&gt;FilterByCategoryPipe  -->
<g id="edge27" class="edge">
<title>SharedModule&#45;&gt;FilterByCategoryPipe </title>
<path fill="none" stroke="#000000" stroke-dasharray="5,2" d="M1820.4821,-184C1888.9722,-184 2004.3242,-184 2004.3242,-184 2004.3242,-184 2004.3242,-205.9489 2004.3242,-205.9489"/>
<polygon fill="#000000" stroke="#000000" points="2000.8242,-205.9488 2004.3242,-215.9489 2007.8242,-205.9489 2000.8242,-205.9488"/>
</g>
<!-- FilterByPricePipe  -->
<g id="node28" class="node">
<title>FilterByPricePipe </title>
<polygon fill="#fb8072" stroke="#000000" points="1967.8171,-252 1848.1829,-252 1848.1829,-216 1967.8171,-216 1967.8171,-252"/>
<text text-anchor="middle" x="1908" y="-229.8" font-family="Times,serif" font-size="14.00" fill="#000000">FilterByPricePipe </text>
</g>
<!-- SharedModule&#45;&gt;FilterByPricePipe  -->
<g id="edge28" class="edge">
<title>SharedModule&#45;&gt;FilterByPricePipe </title>
<path fill="none" stroke="#000000" stroke-dasharray="5,2" d="M1820.2199,-186C1845.3146,-186 1870.607,-186 1870.607,-186 1870.607,-186 1870.607,-205.8533 1870.607,-205.8533"/>
<polygon fill="#000000" stroke="#000000" points="1867.107,-205.8532 1870.607,-215.8533 1874.107,-205.8533 1867.107,-205.8532"/>
</g>
<!-- AgmCoreModule  -->
<g id="node29" class="node">
<title>AgmCoreModule </title>
<polygon fill="#fb8072" stroke="#000000" points="1830.2591,-252 1711.7409,-252 1711.7409,-216 1830.2591,-216 1830.2591,-252"/>
<text text-anchor="middle" x="1771" y="-229.8" font-family="Times,serif" font-size="14.00" fill="#000000">AgmCoreModule </text>
</g>
<!-- SharedModule&#45;&gt;AgmCoreModule  -->
<g id="edge29" class="edge">
<title>SharedModule&#45;&gt;AgmCoreModule </title>
<path fill="none" stroke="#000000" stroke-dasharray="5,2" d="M1771,-187.1061C1771,-187.1061 1771,-205.991 1771,-205.991"/>
<polygon fill="#000000" stroke="#000000" points="1767.5001,-205.9909 1771,-215.991 1774.5001,-205.991 1767.5001,-205.9909"/>
</g>
<!-- CartCheckoutComponent  -->
<g id="node30" class="node">
<title>CartCheckoutComponent </title>
<polygon fill="#fb8072" stroke="#000000" points="1694.0917,-252 1531.9083,-252 1531.9083,-216 1694.0917,-216 1694.0917,-252"/>
<text text-anchor="middle" x="1613" y="-229.8" font-family="Times,serif" font-size="14.00" fill="#000000">CartCheckoutComponent </text>
</g>
<!-- SharedModule&#45;&gt;CartCheckoutComponent  -->
<g id="edge30" class="edge">
<title>SharedModule&#45;&gt;CartCheckoutComponent </title>
<path fill="none" stroke="#000000" stroke-dasharray="5,2" d="M1721.6877,-186C1701.0515,-186 1681.7709,-186 1681.7709,-186 1681.7709,-186 1681.7709,-205.8533 1681.7709,-205.8533"/>
<polygon fill="#000000" stroke="#000000" points="1678.2709,-205.8532 1681.7709,-215.8533 1685.2709,-205.8533 1678.2709,-205.8532"/>
</g>
<!-- CartCheckoutSmallComponent  -->
<g id="node31" class="node">
<title>CartCheckoutSmallComponent </title>
<polygon fill="#fb8072" stroke="#000000" points="1513.7604,-252 1318.2396,-252 1318.2396,-216 1513.7604,-216 1513.7604,-252"/>
<text text-anchor="middle" x="1416" y="-229.8" font-family="Times,serif" font-size="14.00" fill="#000000">CartCheckoutSmallComponent </text>
</g>
<!-- SharedModule&#45;&gt;CartCheckoutSmallComponent  -->
<g id="edge31" class="edge">
<title>SharedModule&#45;&gt;CartCheckoutSmallComponent </title>
<path fill="none" stroke="#000000" stroke-dasharray="5,2" d="M1721.4846,-184C1637.7396,-184 1477.1499,-184 1477.1499,-184 1477.1499,-184 1477.1499,-205.9489 1477.1499,-205.9489"/>
<polygon fill="#000000" stroke="#000000" points="1473.65,-205.9488 1477.1499,-215.9489 1480.65,-205.9489 1473.65,-205.9488"/>
</g>
<!-- ProductCounterComponent  -->
<g id="node32" class="node">
<title>ProductCounterComponent </title>
<polygon fill="#fb8072" stroke="#000000" points="1300.9839,-252 1127.0161,-252 1127.0161,-216 1300.9839,-216 1300.9839,-252"/>
<text text-anchor="middle" x="1214" y="-229.8" font-family="Times,serif" font-size="14.00" fill="#000000">ProductCounterComponent </text>
</g>
<!-- SharedModule&#45;&gt;ProductCounterComponent  -->
<g id="edge32" class="edge">
<title>SharedModule&#45;&gt;ProductCounterComponent </title>
<path fill="none" stroke="#000000" stroke-dasharray="5,2" d="M1721.4237,-183C1591.131,-183 1249.0293,-183 1249.0293,-183 1249.0293,-183 1249.0293,-205.8757 1249.0293,-205.8757"/>
<polygon fill="#000000" stroke="#000000" points="1245.5294,-205.8757 1249.0293,-215.8757 1252.5294,-205.8757 1245.5294,-205.8757"/>
</g>
<!-- PageNotFoundComponent  -->
<g id="node33" class="node">
<title>PageNotFoundComponent </title>
<polygon fill="#fb8072" stroke="#000000" points="1109.3241,-252 940.6759,-252 940.6759,-216 1109.3241,-216 1109.3241,-252"/>
<text text-anchor="middle" x="1025" y="-229.8" font-family="Times,serif" font-size="14.00" fill="#000000">PageNotFoundComponent </text>
</g>
<!-- SharedModule&#45;&gt;PageNotFoundComponent  -->
<g id="edge33" class="edge">
<title>SharedModule&#45;&gt;PageNotFoundComponent </title>
<path fill="none" stroke="#000000" stroke-dasharray="5,2" d="M1721.6877,-181C1564.4677,-181 1085.321,-181 1085.321,-181 1085.321,-181 1085.321,-205.7604 1085.321,-205.7604"/>
<polygon fill="#000000" stroke="#000000" points="1081.8211,-205.7604 1085.321,-215.7604 1088.8211,-205.7604 1081.8211,-205.7604"/>
</g>
<!-- MomentTimeAgoPipe  -->
<g id="node34" class="node">
<title>MomentTimeAgoPipe </title>
<polygon fill="#fb8072" stroke="#000000" points="922.984,-252 777.016,-252 777.016,-216 922.984,-216 922.984,-252"/>
<text text-anchor="middle" x="850" y="-229.8" font-family="Times,serif" font-size="14.00" fill="#000000">MomentTimeAgoPipe </text>
</g>
<!-- SharedModule&#45;&gt;MomentTimeAgoPipe  -->
<g id="edge34" class="edge">
<title>SharedModule&#45;&gt;MomentTimeAgoPipe </title>
<path fill="none" stroke="#000000" stroke-dasharray="5,2" d="M1721.5087,-179C1535.0819,-179 885.7588,-179 885.7588,-179 885.7588,-179 885.7588,-205.9909 885.7588,-205.9909"/>
<polygon fill="#000000" stroke="#000000" points="882.2588,-205.9909 885.7588,-215.9909 889.2588,-205.991 882.2588,-205.9909"/>
</g>
<!-- NgxContentLoadingModule  -->
<g id="node35" class="node">
<title>NgxContentLoadingModule </title>
<polygon fill="#fb8072" stroke="#000000" points="759.1467,-252 580.8533,-252 580.8533,-216 759.1467,-216 759.1467,-252"/>
<text text-anchor="middle" x="670" y="-229.8" font-family="Times,serif" font-size="14.00" fill="#000000">NgxContentLoadingModule </text>
</g>
<!-- SharedModule&#45;&gt;NgxContentLoadingModule  -->
<g id="edge35" class="edge">
<title>SharedModule&#45;&gt;NgxContentLoadingModule </title>
<path fill="none" stroke="#000000" stroke-dasharray="5,2" d="M1721.4796,-178C1511.7461,-178 707.375,-178 707.375,-178 707.375,-178 707.375,-205.973 707.375,-205.973"/>
<polygon fill="#000000" stroke="#000000" points="703.8751,-205.973 707.375,-215.973 710.8751,-205.973 703.8751,-205.973"/>
</g>
<!-- CdkTableModule  -->
<g id="node36" class="node">
<title>CdkTableModule </title>
<polygon fill="#fb8072" stroke="#000000" points="563.2591,-252 444.7409,-252 444.7409,-216 563.2591,-216 563.2591,-252"/>
<text text-anchor="middle" x="504" y="-229.8" font-family="Times,serif" font-size="14.00" fill="#000000">CdkTableModule </text>
</g>
<!-- SharedModule&#45;&gt;CdkTableModule  -->
<g id="edge36" class="edge">
<title>SharedModule&#45;&gt;CdkTableModule </title>
<path fill="none" stroke="#000000" stroke-dasharray="5,2" d="M1721.4879,-176C1490.2211,-176 527.5493,-176 527.5493,-176 527.5493,-176 527.5493,-205.9664 527.5493,-205.9664"/>
<polygon fill="#000000" stroke="#000000" points="524.0494,-205.9663 527.5493,-215.9664 531.0494,-205.9664 524.0494,-205.9663"/>
</g>
<!-- CdkTreeModule  -->
<g id="node37" class="node">
<title>CdkTreeModule </title>
<polygon fill="#fb8072" stroke="#000000" points="427.0288,-252 314.9712,-252 314.9712,-216 427.0288,-216 427.0288,-252"/>
<text text-anchor="middle" x="371" y="-229.8" font-family="Times,serif" font-size="14.00" fill="#000000">CdkTreeModule </text>
</g>
<!-- SharedModule&#45;&gt;CdkTreeModule  -->
<g id="edge37" class="edge">
<title>SharedModule&#45;&gt;CdkTreeModule </title>
<path fill="none" stroke="#000000" stroke-dasharray="5,2" d="M1721.7461,-174C1473.9652,-174 375.5776,-174 375.5776,-174 375.5776,-174 375.5776,-205.998 375.5776,-205.998"/>
<polygon fill="#000000" stroke="#000000" points="372.0777,-205.998 375.5776,-215.998 379.0777,-205.9981 372.0777,-205.998"/>
</g>
<!-- DragDropModule  -->
<g id="node38" class="node">
<title>DragDropModule </title>
<polygon fill="#fb8072" stroke="#000000" points="296.799,-252 177.201,-252 177.201,-216 296.799,-216 296.799,-252"/>
<text text-anchor="middle" x="237" y="-229.8" font-family="Times,serif" font-size="14.00" fill="#000000">DragDropModule </text>
</g>
<!-- SharedModule&#45;&gt;DragDropModule  -->
<g id="edge38" class="edge">
<title>SharedModule&#45;&gt;DragDropModule </title>
<path fill="none" stroke="#000000" stroke-dasharray="5,2" d="M1721.3797,-173C1458.5063,-173 240.4866,-173 240.4866,-173 240.4866,-173 240.4866,-205.698 240.4866,-205.698"/>
<polygon fill="#000000" stroke="#000000" points="236.9867,-205.698 240.4866,-215.698 243.9867,-205.698 236.9867,-205.698"/>
</g>
<!-- ScrollingModule  -->
<g id="node39" class="node">
<title>ScrollingModule </title>
<polygon fill="#fb8072" stroke="#000000" points="159.38,-252 44.62,-252 44.62,-216 159.38,-216 159.38,-252"/>
<text text-anchor="middle" x="102" y="-229.8" font-family="Times,serif" font-size="14.00" fill="#000000">ScrollingModule </text>
</g>
<!-- SharedModule&#45;&gt;ScrollingModule  -->
<g id="edge39" class="edge">
<title>SharedModule&#45;&gt;ScrollingModule </title>
<path fill="none" stroke="#000000" stroke-dasharray="5,2" d="M1721.6207,-171C1447.0914,-171 121.0632,-171 121.0632,-171 121.0632,-171 121.0632,-205.7778 121.0632,-205.7778"/>
<polygon fill="#000000" stroke="#000000" points="117.5631,-205.7778 121.0632,-215.7778 124.5631,-205.7778 117.5631,-205.7778"/>
</g>
<!-- CommonModule -->
<g id="node11" class="node">
<title>CommonModule</title>
<polygon fill="#8dd3c7" stroke="#000000" points="2022.6681,-122 2019.6681,-126 1998.6681,-126 1995.6681,-122 1911.3319,-122 1911.3319,-86 2022.6681,-86 2022.6681,-122"/>
<text text-anchor="middle" x="1967" y="-99.8" font-family="Times,serif" font-size="14.00" fill="#000000">CommonModule</text>
</g>
<!-- CommonModule&#45;&gt;SharedModule -->
<g id="edge10" class="edge">
<title>CommonModule&#45;&gt;SharedModule</title>
<path fill="none" stroke="#000000" d="M1939.5374,-122.2458C1939.5374,-136.1772 1939.5374,-153 1939.5374,-153 1939.5374,-153 1830.6552,-153 1830.6552,-153"/>
<polygon fill="#000000" stroke="#000000" points="1830.6552,-149.5001 1820.6552,-153 1830.6552,-156.5001 1830.6552,-149.5001"/>
</g>
<!-- MDBBootstrapModule.forRoot() -->
<g id="node12" class="node">
<title>MDBBootstrapModule.forRoot()</title>
<polygon fill="#8dd3c7" stroke="#000000" points="1893.2449,-122 1890.2449,-126 1869.2449,-126 1866.2449,-122 1690.7551,-122 1690.7551,-86 1893.2449,-86 1893.2449,-122"/>
<text text-anchor="middle" x="1792" y="-99.8" font-family="Times,serif" font-size="14.00" fill="#000000">MDBBootstrapModule.forRoot()</text>
</g>
<!-- MDBBootstrapModule.forRoot()&#45;&gt;SharedModule -->
<g id="edge11" class="edge">
<title>MDBBootstrapModule.forRoot()&#45;&gt;SharedModule</title>
<path fill="none" stroke="#000000" d="M1771,-122.1061C1771,-122.1061 1771,-140.991 1771,-140.991"/>
<polygon fill="#000000" stroke="#000000" points="1767.5001,-140.9909 1771,-150.991 1774.5001,-140.991 1767.5001,-140.9909"/>
</g>
<!-- FormsModule -->
<g id="node13" class="node">
<title>FormsModule</title>
<polygon fill="#8dd3c7" stroke="#000000" points="1672.8288,-122 1669.8288,-126 1648.8288,-126 1645.8288,-122 1577.1712,-122 1577.1712,-86 1672.8288,-86 1672.8288,-122"/>
<text text-anchor="middle" x="1625" y="-99.8" font-family="Times,serif" font-size="14.00" fill="#000000">FormsModule</text>
</g>
<!-- FormsModule&#45;&gt;SharedModule -->
<g id="edge12" class="edge">
<title>FormsModule&#45;&gt;SharedModule</title>
<path fill="none" stroke="#000000" d="M1625,-122.2458C1625,-136.1772 1625,-153 1625,-153 1625,-153 1711.5711,-153 1711.5711,-153"/>
<polygon fill="#000000" stroke="#000000" points="1711.5711,-156.5001 1721.5711,-153 1711.571,-149.5001 1711.5711,-156.5001"/>
</g>
<!-- HttpClientModule -->
<g id="node14" class="node">
<title>HttpClientModule</title>
<polygon fill="#8dd3c7" stroke="#000000" points="1559.1611,-122 1556.1611,-126 1535.1611,-126 1532.1611,-122 1440.8389,-122 1440.8389,-86 1559.1611,-86 1559.1611,-122"/>
<text text-anchor="middle" x="1500" y="-99.8" font-family="Times,serif" font-size="14.00" fill="#000000">HttpClientModule</text>
</g>
<!-- HttpClientModule&#45;&gt;SharedModule -->
<g id="edge13" class="edge">
<title>HttpClientModule&#45;&gt;SharedModule</title>
<path fill="none" stroke="#000000" d="M1545.5174,-122.1243C1545.5174,-136.7832 1545.5174,-155 1545.5174,-155 1545.5174,-155 1711.5169,-155 1711.5169,-155"/>
<polygon fill="#000000" stroke="#000000" points="1711.5169,-158.5001 1721.5169,-155 1711.5168,-151.5001 1711.5169,-158.5001"/>
</g>
<!-- RouterModule -->
<g id="node15" class="node">
<title>RouterModule</title>
<polygon fill="#8dd3c7" stroke="#000000" points="1422.6528,-122 1419.6528,-126 1398.6528,-126 1395.6528,-122 1325.3472,-122 1325.3472,-86 1422.6528,-86 1422.6528,-122"/>
<text text-anchor="middle" x="1374" y="-99.8" font-family="Times,serif" font-size="14.00" fill="#000000">RouterModule</text>
</g>
<!-- RouterModule&#45;&gt;SharedModule -->
<g id="edge14" class="edge">
<title>RouterModule&#45;&gt;SharedModule</title>
<path fill="none" stroke="#000000" d="M1374,-122.1871C1374,-137.1824 1374,-156 1374,-156 1374,-156 1711.5224,-156 1711.5224,-156"/>
<polygon fill="#000000" stroke="#000000" points="1711.5224,-159.5001 1721.5224,-156 1711.5223,-152.5001 1711.5224,-159.5001"/>
</g>
<!-- OwlModule -->
<g id="node16" class="node">
<title>OwlModule</title>
<polygon fill="#8dd3c7" stroke="#000000" points="1306.6543,-122 1303.6543,-126 1282.6543,-126 1279.6543,-122 1223.3457,-122 1223.3457,-86 1306.6543,-86 1306.6543,-122"/>
<text text-anchor="middle" x="1265" y="-99.8" font-family="Times,serif" font-size="14.00" fill="#000000">OwlModule</text>
</g>
<!-- OwlModule&#45;&gt;SharedModule -->
<g id="edge15" class="edge">
<title>OwlModule&#45;&gt;SharedModule</title>
<path fill="none" stroke="#000000" d="M1274.8855,-122.2819C1274.8855,-137.9478 1274.8855,-158 1274.8855,-158 1274.8855,-158 1711.6169,-158 1711.6169,-158"/>
<polygon fill="#000000" stroke="#000000" points="1711.6169,-161.5001 1721.6169,-158 1711.6168,-154.5001 1711.6169,-161.5001"/>
</g>
<!-- NgxPaginationModule -->
<g id="node17" class="node">
<title>NgxPaginationModule</title>
<polygon fill="#8dd3c7" stroke="#000000" points="1204.5407,-122 1201.5407,-126 1180.5407,-126 1177.5407,-122 1061.4593,-122 1061.4593,-86 1204.5407,-86 1204.5407,-122"/>
<text text-anchor="middle" x="1133" y="-99.8" font-family="Times,serif" font-size="14.00" fill="#000000">NgxPaginationModule</text>
</g>
<!-- NgxPaginationModule&#45;&gt;SharedModule -->
<g id="edge16" class="edge">
<title>NgxPaginationModule&#45;&gt;SharedModule</title>
<path fill="none" stroke="#000000" d="M1166.0142,-122.027C1166.0142,-138.3976 1166.0142,-160 1166.0142,-160 1166.0142,-160 1711.748,-160 1711.748,-160"/>
<polygon fill="#000000" stroke="#000000" points="1711.748,-163.5001 1721.748,-160 1711.7479,-156.5001 1711.748,-163.5001"/>
</g>
<!-- AgmCoreModule.forRoot(args) -->
<g id="node18" class="node">
<title>AgmCoreModule.forRoot(args)</title>
<polygon fill="#8dd3c7" stroke="#000000" points="1043.4487,-122 1040.4487,-126 1019.4487,-126 1016.4487,-122 848.5513,-122 848.5513,-86 1043.4487,-86 1043.4487,-122"/>
<text text-anchor="middle" x="946" y="-99.8" font-family="Times,serif" font-size="14.00" fill="#000000">AgmCoreModule.forRoot(args)</text>
</g>
<!-- AgmCoreModule.forRoot(args)&#45;&gt;SharedModule -->
<g id="edge17" class="edge">
<title>AgmCoreModule.forRoot(args)&#45;&gt;SharedModule</title>
<path fill="none" stroke="#000000" d="M991.9061,-122.0352C991.9061,-138.7344 991.9061,-161 991.9061,-161 991.9061,-161 1711.6731,-161 1711.6731,-161"/>
<polygon fill="#000000" stroke="#000000" points="1711.6732,-164.5001 1721.6731,-161 1711.6731,-157.5001 1711.6732,-164.5001"/>
</g>
<!-- NgxContentLoadingModule -->
<g id="node19" class="node">
<title>NgxContentLoadingModule</title>
<polygon fill="#8dd3c7" stroke="#000000" points="830.147,-122 827.147,-126 806.147,-126 803.147,-122 655.853,-122 655.853,-86 830.147,-86 830.147,-122"/>
<text text-anchor="middle" x="743" y="-99.8" font-family="Times,serif" font-size="14.00" fill="#000000">NgxContentLoadingModule</text>
</g>
<!-- NgxContentLoadingModule&#45;&gt;SharedModule -->
<g id="edge18" class="edge">
<title>NgxContentLoadingModule&#45;&gt;SharedModule</title>
<path fill="none" stroke="#000000" d="M803.7909,-122.0225C803.7909,-139.3734 803.7909,-163 803.7909,-163 803.7909,-163 1711.7062,-163 1711.7062,-163"/>
<polygon fill="#000000" stroke="#000000" points="1711.7063,-166.5001 1721.7062,-163 1711.7062,-159.5001 1711.7063,-166.5001"/>
</g>
<!-- ProductService -->
<g id="node40" class="node">
<title>ProductService</title>
<ellipse fill="#fdb462" stroke="#000000" cx="562" cy="-104" rx="70.0616" ry="18"/>
<text text-anchor="middle" x="562" y="-99.8" font-family="Times,serif" font-size="14.00" fill="#000000">ProductService</text>
</g>
<!-- ProductService&#45;&gt;SharedModule -->
<g id="edge40" class="edge">
<title>ProductService&#45;&gt;SharedModule</title>
<path fill="none" stroke="#000000" d="M606.4787,-118.1479C606.4787,-136.168 606.4787,-165 606.4787,-165 606.4787,-165 1711.7058,-165 1711.7058,-165"/>
<polygon fill="#000000" stroke="#000000" points="1711.7058,-168.5001 1721.7058,-165 1711.7057,-161.5001 1711.7058,-168.5001"/>
</g>
<!-- ProductService1 -->
<g id="node41" class="node">
<title>ProductService1</title>
<ellipse fill="#fdb462" stroke="#000000" cx="399" cy="-104" rx="74.7188" ry="18"/>
<text text-anchor="middle" x="399" y="-99.8" font-family="Times,serif" font-size="14.00" fill="#000000">ProductService1</text>
</g>
<!-- ProductService1&#45;&gt;SharedModule -->
<g id="edge41" class="edge">
<title>ProductService1&#45;&gt;SharedModule</title>
<path fill="none" stroke="#000000" d="M459.3649,-114.7996C459.3649,-132.563 459.3649,-166 459.3649,-166 459.3649,-166 1711.5808,-166 1711.5808,-166"/>
<polygon fill="#000000" stroke="#000000" points="1711.5809,-169.5001 1721.5808,-166 1711.5808,-162.5001 1711.5809,-169.5001"/>
</g>
<!-- FormBuilder -->
<g id="node42" class="node">
<title>FormBuilder</title>
<ellipse fill="#fdb462" stroke="#000000" cx="245" cy="-104" rx="60.8525" ry="18"/>
<text text-anchor="middle" x="245" y="-99.8" font-family="Times,serif" font-size="14.00" fill="#000000">FormBuilder</text>
</g>
<!-- FormBuilder&#45;&gt;SharedModule -->
<g id="edge42" class="edge">
<title>FormBuilder&#45;&gt;SharedModule</title>
<path fill="none" stroke="#000000" d="M301.4128,-110.8491C301.4128,-127.3594 301.4128,-168 301.4128,-168 301.4128,-168 1711.684,-168 1711.684,-168"/>
<polygon fill="#000000" stroke="#000000" points="1711.684,-171.5001 1721.684,-168 1711.6839,-164.5001 1711.684,-171.5001"/>
</g>
<!-- SettingsService -->
<g id="node43" class="node">
<title>SettingsService</title>
<ellipse fill="#fdb462" stroke="#000000" cx="95" cy="-104" rx="71.221" ry="18"/>
<text text-anchor="middle" x="95" y="-99.8" font-family="Times,serif" font-size="14.00" fill="#000000">SettingsService</text>
</g>
<!-- SettingsService&#45;&gt;SharedModule -->
<g id="edge43" class="edge">
<title>SettingsService&#45;&gt;SharedModule</title>
<path fill="none" stroke="#000000" d="M82.9368,-121.7615C82.9368,-141.0068 82.9368,-169 82.9368,-169 82.9368,-169 1711.3937,-169 1711.3937,-169"/>
<polygon fill="#000000" stroke="#000000" points="1711.3937,-172.5001 1721.3937,-169 1711.3936,-165.5001 1711.3937,-172.5001"/>
</g>
</g>
</svg>
