<?xml version="1.0" encoding="UTF-8" standalone="no"?>
<!DOCTYPE svg PUBLIC "-//W3C//DTD SVG 1.1//EN"
 "http://www.w3.org/Graphics/SVG/1.1/DTD/svg11.dtd">
<!-- Generated by graphviz version 2.40.1 (20161225.0304)
 -->
<!-- Title: dependencies Pages: 1 -->
<svg width="961pt" height="284pt"
 viewBox="0.00 0.00 961.00 284.00" xmlns="http://www.w3.org/2000/svg" xmlns:xlink="http://www.w3.org/1999/xlink">
<g id="graph0" class="graph" transform="scale(1 1) rotate(0) translate(4 280)">
<title>dependencies</title>
<polygon fill="#ffffff" stroke="transparent" points="-4,4 -4,-280 957,-280 957,4 -4,4"/>
<text text-anchor="start" x="455.5091" y="-42.4" font-family="sans-serif" font-weight="bold" font-size="14.00" fill="#000000">Legend</text>
<polygon fill="#ffffb3" stroke="transparent" points="242.5,-10 242.5,-30 262.5,-30 262.5,-10 242.5,-10"/>
<text text-anchor="start" x="266.129" y="-15.4" font-family="sans-serif" font-size="14.00" fill="#000000"> &#160;Declarations</text>
<polygon fill="#8dd3c7" stroke="transparent" points="355.5,-10 355.5,-30 375.5,-30 375.5,-10 355.5,-10"/>
<text text-anchor="start" x="379.2251" y="-15.4" font-family="sans-serif" font-size="14.00" fill="#000000"> &#160;Module</text>
<polygon fill="#80b1d3" stroke="transparent" points="441.5,-10 441.5,-30 461.5,-30 461.5,-10 441.5,-10"/>
<text text-anchor="start" x="465.2812" y="-15.4" font-family="sans-serif" font-size="14.00" fill="#000000"> &#160;Bootstrap</text>
<polygon fill="#fdb462" stroke="transparent" points="538.5,-10 538.5,-30 558.5,-30 558.5,-10 538.5,-10"/>
<text text-anchor="start" x="562.1732" y="-15.4" font-family="sans-serif" font-size="14.00" fill="#000000"> &#160;Providers</text>
<polygon fill="#fb8072" stroke="transparent" points="634.5,-10 634.5,-30 654.5,-30 654.5,-10 634.5,-10"/>
<text text-anchor="start" x="658.2258" y="-15.4" font-family="sans-serif" font-size="14.00" fill="#000000"> &#160;Exports</text>
<g id="clust1" class="cluster">
<title>cluster_CheckoutModule</title>
<polygon fill="none" stroke="#000000" stroke-dasharray="1,5" points="8,-70 8,-268 945,-268 945,-70 8,-70"/>
</g>
<g id="clust2" class="cluster">
<title>cluster_CheckoutModule_declarations</title>
<polygon fill="none" stroke="#000000" points="444,-78 444,-130 937,-130 937,-78 444,-78"/>
</g>
<g id="clust6" class="cluster">
<title>cluster_CheckoutModule_imports</title>
<polygon fill="none" stroke="#000000" points="16,-78 16,-130 436,-130 436,-78 16,-78"/>
</g>
<g id="clust7" class="cluster">
<title>cluster_CheckoutModule_exports</title>
<polygon fill="none" stroke="#000000" points="379,-208 379,-260 533,-260 533,-208 379,-208"/>
</g>
<!-- CheckoutComponent -->
<g id="node1" class="node">
<title>CheckoutComponent</title>
<polygon fill="#ffffb3" stroke="#000000" points="929.4888,-122 794.5112,-122 794.5112,-86 929.4888,-86 929.4888,-122"/>
<text text-anchor="middle" x="862" y="-99.8" font-family="Times,serif" font-size="14.00" fill="#000000">CheckoutComponent</text>
</g>
<!-- CheckoutModule -->
<g id="node4" class="node">
<title>CheckoutModule</title>
<polygon fill="#8dd3c7" stroke="#000000" points="512.7064,-187 509.7064,-191 488.7064,-191 485.7064,-187 399.2936,-187 399.2936,-151 512.7064,-151 512.7064,-187"/>
<text text-anchor="middle" x="456" y="-164.8" font-family="Times,serif" font-size="14.00" fill="#000000">CheckoutModule</text>
</g>
<!-- CheckoutComponent&#45;&gt;CheckoutModule -->
<g id="edge1" class="edge">
<title>CheckoutComponent&#45;&gt;CheckoutModule</title>
<path fill="none" stroke="#000000" d="M862,-122.2843C862,-143.3211 862,-175 862,-175 862,-175 522.8801,-175 522.8801,-175"/>
<polygon fill="#000000" stroke="#000000" points="522.8801,-171.5001 512.8801,-175 522.88,-178.5001 522.8801,-171.5001"/>
</g>
<!-- ProductsComponent -->
<g id="node2" class="node">
<title>ProductsComponent</title>
<polygon fill="#ffffb3" stroke="#000000" points="776.3258,-122 645.6742,-122 645.6742,-86 776.3258,-86 776.3258,-122"/>
<text text-anchor="middle" x="711" y="-99.8" font-family="Times,serif" font-size="14.00" fill="#000000">ProductsComponent</text>
</g>
<!-- ProductsComponent&#45;&gt;CheckoutModule -->
<g id="edge2" class="edge">
<title>ProductsComponent&#45;&gt;CheckoutModule</title>
<path fill="none" stroke="#000000" d="M711,-122.0225C711,-139.3734 711,-163 711,-163 711,-163 522.9096,-163 522.9096,-163"/>
<polygon fill="#000000" stroke="#000000" points="522.9096,-159.5001 512.9096,-163 522.9096,-166.5001 522.9096,-159.5001"/>
</g>
<!-- CheckoutNavbarComponent -->
<g id="node3" class="node">
<title>CheckoutNavbarComponent</title>
<polygon fill="#ffffb3" stroke="#000000" points="628.1853,-122 451.8147,-122 451.8147,-86 628.1853,-86 628.1853,-122"/>
<text text-anchor="middle" x="540" y="-99.8" font-family="Times,serif" font-size="14.00" fill="#000000">CheckoutNavbarComponent</text>
</g>
<!-- CheckoutNavbarComponent&#45;&gt;CheckoutModule -->
<g id="edge3" class="edge">
<title>CheckoutNavbarComponent&#45;&gt;CheckoutModule</title>
<path fill="none" stroke="#000000" d="M482.2553,-122.1061C482.2553,-122.1061 482.2553,-140.991 482.2553,-140.991"/>
<polygon fill="#000000" stroke="#000000" points="478.7553,-140.9909 482.2553,-150.991 485.7553,-140.991 478.7553,-140.9909"/>
</g>
<!-- CheckoutComponent  -->
<g id="node8" class="node">
<title>CheckoutComponent </title>
<polygon fill="#fb8072" stroke="#000000" points="525.4897,-252 386.5103,-252 386.5103,-216 525.4897,-216 525.4897,-252"/>
<text text-anchor="middle" x="456" y="-229.8" font-family="Times,serif" font-size="14.00" fill="#000000">CheckoutComponent </text>
</g>
<!-- CheckoutModule&#45;&gt;CheckoutComponent  -->
<g id="edge7" class="edge">
<title>CheckoutModule&#45;&gt;CheckoutComponent </title>
<path fill="none" stroke="#000000" stroke-dasharray="5,2" d="M456,-187.1061C456,-187.1061 456,-205.991 456,-205.991"/>
<polygon fill="#000000" stroke="#000000" points="452.5001,-205.9909 456,-215.991 459.5001,-205.991 452.5001,-205.9909"/>
</g>
<!-- CommonModule -->
<g id="node5" class="node">
<title>CommonModule</title>
<polygon fill="#8dd3c7" stroke="#000000" points="427.6681,-122 424.6681,-126 403.6681,-126 400.6681,-122 316.3319,-122 316.3319,-86 427.6681,-86 427.6681,-122"/>
<text text-anchor="middle" x="372" y="-99.8" font-family="Times,serif" font-size="14.00" fill="#000000">CommonModule</text>
</g>
<!-- CommonModule&#45;&gt;CheckoutModule -->
<g id="edge4" class="edge">
<title>CommonModule&#45;&gt;CheckoutModule</title>
<path fill="none" stroke="#000000" d="M413.6154,-122.1061C413.6154,-122.1061 413.6154,-140.991 413.6154,-140.991"/>
<polygon fill="#000000" stroke="#000000" points="410.1154,-140.9909 413.6154,-150.991 417.1154,-140.991 410.1154,-140.9909"/>
</g>
<!-- SharedModule -->
<g id="node6" class="node">
<title>SharedModule</title>
<polygon fill="#8dd3c7" stroke="#000000" points="298.4231,-122 295.4231,-126 274.4231,-126 271.4231,-122 199.5769,-122 199.5769,-86 298.4231,-86 298.4231,-122"/>
<text text-anchor="middle" x="249" y="-99.8" font-family="Times,serif" font-size="14.00" fill="#000000">SharedModule</text>
</g>
<!-- SharedModule&#45;&gt;CheckoutModule -->
<g id="edge5" class="edge">
<title>SharedModule&#45;&gt;CheckoutModule</title>
<path fill="none" stroke="#000000" d="M249,-122.0225C249,-139.3734 249,-163 249,-163 249,-163 389.1625,-163 389.1625,-163"/>
<polygon fill="#000000" stroke="#000000" points="389.1626,-166.5001 399.1625,-163 389.1625,-159.5001 389.1626,-166.5001"/>
</g>
<!-- CheckoutRoutingModule -->
<g id="node7" class="node">
<title>CheckoutRoutingModule</title>
<polygon fill="#8dd3c7" stroke="#000000" points="182.3243,-122 179.3243,-126 158.3243,-126 155.3243,-122 23.6757,-122 23.6757,-86 182.3243,-86 182.3243,-122"/>
<text text-anchor="middle" x="103" y="-99.8" font-family="Times,serif" font-size="14.00" fill="#000000">CheckoutRoutingModule</text>
</g>
<!-- CheckoutRoutingModule&#45;&gt;CheckoutModule -->
<g id="edge6" class="edge">
<title>CheckoutRoutingModule&#45;&gt;CheckoutModule</title>
<path fill="none" stroke="#000000" d="M103,-122.2843C103,-143.3211 103,-175 103,-175 103,-175 389.2844,-175 389.2844,-175"/>
<polygon fill="#000000" stroke="#000000" points="389.2845,-178.5001 399.2844,-175 389.2844,-171.5001 389.2845,-178.5001"/>
</g>
</g>
</svg>
