<?xml version="1.0" encoding="UTF-8" standalone="no"?>
<!DOCTYPE svg PUBLIC "-//W3C//DTD SVG 1.1//EN"
 "http://www.w3.org/Graphics/SVG/1.1/DTD/svg11.dtd">
<!-- Generated by graphviz version 2.40.1 (20161225.0304)
 -->
<!-- Title: dependencies Pages: 1 -->
<svg width="1379pt" height="284pt"
 viewBox="0.00 0.00 1379.00 284.00" xmlns="http://www.w3.org/2000/svg" xmlns:xlink="http://www.w3.org/1999/xlink">
<g id="graph0" class="graph" transform="scale(1 1) rotate(0) translate(4 280)">
<title>dependencies</title>
<polygon fill="#ffffff" stroke="transparent" points="-4,4 -4,-280 1375,-280 1375,4 -4,4"/>
<text text-anchor="start" x="664.5091" y="-42.4" font-family="sans-serif" font-weight="bold" font-size="14.00" fill="#000000">Legend</text>
<polygon fill="#ffffb3" stroke="transparent" points="451.5,-10 451.5,-30 471.5,-30 471.5,-10 451.5,-10"/>
<text text-anchor="start" x="475.129" y="-15.4" font-family="sans-serif" font-size="14.00" fill="#000000"> &#160;Declarations</text>
<polygon fill="#8dd3c7" stroke="transparent" points="564.5,-10 564.5,-30 584.5,-30 584.5,-10 564.5,-10"/>
<text text-anchor="start" x="588.2251" y="-15.4" font-family="sans-serif" font-size="14.00" fill="#000000"> &#160;Module</text>
<polygon fill="#80b1d3" stroke="transparent" points="650.5,-10 650.5,-30 670.5,-30 670.5,-10 650.5,-10"/>
<text text-anchor="start" x="674.2812" y="-15.4" font-family="sans-serif" font-size="14.00" fill="#000000"> &#160;Bootstrap</text>
<polygon fill="#fdb462" stroke="transparent" points="747.5,-10 747.5,-30 767.5,-30 767.5,-10 747.5,-10"/>
<text text-anchor="start" x="771.1732" y="-15.4" font-family="sans-serif" font-size="14.00" fill="#000000"> &#160;Providers</text>
<polygon fill="#fb8072" stroke="transparent" points="843.5,-10 843.5,-30 863.5,-30 863.5,-10 843.5,-10"/>
<text text-anchor="start" x="867.2258" y="-15.4" font-family="sans-serif" font-size="14.00" fill="#000000"> &#160;Exports</text>
<g id="clust1" class="cluster">
<title>cluster_AppModule</title>
<polygon fill="none" stroke="#000000" stroke-dasharray="1,5" points="8,-70 8,-268 1363,-268 1363,-70 8,-70"/>
</g>
<g id="clust2" class="cluster">
<title>cluster_AppModule_declarations</title>
<polygon fill="none" stroke="#000000" points="1233,-78 1233,-130 1355,-130 1355,-78 1233,-78"/>
</g>
<g id="clust4" class="cluster">
<title>cluster_AppModule_imports</title>
<polygon fill="none" stroke="#000000" points="16,-78 16,-130 1225,-130 1225,-78 16,-78"/>
</g>
<g id="clust6" class="cluster">
<title>cluster_AppModule_bootstrap</title>
<polygon fill="none" stroke="#000000" points="683,-208 683,-260 807,-260 807,-208 683,-208"/>
</g>
<!-- AppComponent -->
<g id="node1" class="node">
<title>AppComponent</title>
<polygon fill="#ffffb3" stroke="#000000" points="1346.9399,-122 1241.0601,-122 1241.0601,-86 1346.9399,-86 1346.9399,-122"/>
<text text-anchor="middle" x="1294" y="-99.8" font-family="Times,serif" font-size="14.00" fill="#000000">AppComponent</text>
</g>
<!-- AppModule -->
<g id="node2" class="node">
<title>AppModule</title>
<polygon fill="#8dd3c7" stroke="#000000" points="786.6571,-187 783.6571,-191 762.6571,-191 759.6571,-187 703.3429,-187 703.3429,-151 786.6571,-151 786.6571,-187"/>
<text text-anchor="middle" x="745" y="-164.8" font-family="Times,serif" font-size="14.00" fill="#000000">AppModule</text>
</g>
<!-- AppComponent&#45;&gt;AppModule -->
<g id="edge1" class="edge">
<title>AppComponent&#45;&gt;AppModule</title>
<path fill="none" stroke="#000000" d="M1294,-122.0109C1294,-144.4852 1294,-180 1294,-180 1294,-180 796.7148,-180 796.7148,-180"/>
<polygon fill="#000000" stroke="#000000" points="796.7149,-176.5001 786.7148,-180 796.7148,-183.5001 796.7149,-176.5001"/>
</g>
<!-- AppComponent  -->
<g id="node11" class="node">
<title>AppComponent </title>
<polygon fill="#80b1d3" stroke="#000000" points="799.439,-252 690.561,-252 690.561,-216 799.439,-216 799.439,-252"/>
<text text-anchor="middle" x="745" y="-229.8" font-family="Times,serif" font-size="14.00" fill="#000000">AppComponent </text>
</g>
<!-- AppModule&#45;&gt;AppComponent  -->
<g id="edge10" class="edge">
<title>AppModule&#45;&gt;AppComponent </title>
<path fill="none" stroke="#000000" stroke-dasharray="1,5" d="M745,-187.1061C745,-187.1061 745,-205.991 745,-205.991"/>
<polygon fill="#000000" stroke="#000000" points="741.5001,-205.9909 745,-215.991 748.5001,-205.991 741.5001,-205.9909"/>
</g>
<!-- BrowserModule -->
<g id="node3" class="node">
<title>BrowserModule</title>
<polygon fill="#8dd3c7" stroke="#000000" points="1217.4734,-122 1214.4734,-126 1193.4734,-126 1190.4734,-122 1110.5266,-122 1110.5266,-86 1217.4734,-86 1217.4734,-122"/>
<text text-anchor="middle" x="1164" y="-99.8" font-family="Times,serif" font-size="14.00" fill="#000000">BrowserModule</text>
</g>
<!-- BrowserModule&#45;&gt;AppModule -->
<g id="edge2" class="edge">
<title>BrowserModule&#45;&gt;AppModule</title>
<path fill="none" stroke="#000000" d="M1164,-122.1289C1164,-142.5724 1164,-173 1164,-173 1164,-173 796.7072,-173 796.7072,-173"/>
<polygon fill="#000000" stroke="#000000" points="796.7072,-169.5001 786.7072,-173 796.7071,-176.5001 796.7072,-169.5001"/>
</g>
<!-- BrowserAnimationsModule -->
<g id="node4" class="node">
<title>BrowserAnimationsModule</title>
<polygon fill="#8dd3c7" stroke="#000000" points="1092.3019,-122 1089.3019,-126 1068.3019,-126 1065.3019,-122 919.6981,-122 919.6981,-86 1092.3019,-86 1092.3019,-122"/>
<text text-anchor="middle" x="1006" y="-99.8" font-family="Times,serif" font-size="14.00" fill="#000000">BrowserAnimationsModule</text>
</g>
<!-- BrowserAnimationsModule&#45;&gt;AppModule -->
<g id="edge3" class="edge">
<title>BrowserAnimationsModule&#45;&gt;AppModule</title>
<path fill="none" stroke="#000000" d="M1006,-122.2667C1006,-140.5552 1006,-166 1006,-166 1006,-166 796.9342,-166 796.9342,-166"/>
<polygon fill="#000000" stroke="#000000" points="796.9342,-162.5001 786.9342,-166 796.9341,-169.5001 796.9342,-162.5001"/>
</g>
<!-- IndexModule -->
<g id="node5" class="node">
<title>IndexModule</title>
<polygon fill="#8dd3c7" stroke="#000000" points="901.926,-122 898.926,-126 877.926,-126 874.926,-122 810.074,-122 810.074,-86 901.926,-86 901.926,-122"/>
<text text-anchor="middle" x="856" y="-99.8" font-family="Times,serif" font-size="14.00" fill="#000000">IndexModule</text>
</g>
<!-- IndexModule&#45;&gt;AppModule -->
<g id="edge4" class="edge">
<title>IndexModule&#45;&gt;AppModule</title>
<path fill="none" stroke="#000000" d="M856,-122.0091C856,-138.0494 856,-159 856,-159 856,-159 796.9643,-159 796.9643,-159"/>
<polygon fill="#000000" stroke="#000000" points="796.9644,-155.5001 786.9643,-159 796.9643,-162.5001 796.9644,-155.5001"/>
</g>
<!-- FormsModule -->
<g id="node6" class="node">
<title>FormsModule</title>
<polygon fill="#8dd3c7" stroke="#000000" points="792.8288,-122 789.8288,-126 768.8288,-126 765.8288,-122 697.1712,-122 697.1712,-86 792.8288,-86 792.8288,-122"/>
<text text-anchor="middle" x="745" y="-99.8" font-family="Times,serif" font-size="14.00" fill="#000000">FormsModule</text>
</g>
<!-- FormsModule&#45;&gt;AppModule -->
<g id="edge5" class="edge">
<title>FormsModule&#45;&gt;AppModule</title>
<path fill="none" stroke="#000000" d="M745,-122.1061C745,-122.1061 745,-140.991 745,-140.991"/>
<polygon fill="#000000" stroke="#000000" points="741.5001,-140.9909 745,-150.991 748.5001,-140.991 741.5001,-140.9909"/>
</g>
<!-- ProductModule -->
<g id="node7" class="node">
<title>ProductModule</title>
<polygon fill="#8dd3c7" stroke="#000000" points="679.5982,-122 676.5982,-126 655.5982,-126 652.5982,-122 576.4018,-122 576.4018,-86 679.5982,-86 679.5982,-122"/>
<text text-anchor="middle" x="628" y="-99.8" font-family="Times,serif" font-size="14.00" fill="#000000">ProductModule</text>
</g>
<!-- ProductModule&#45;&gt;AppModule -->
<g id="edge6" class="edge">
<title>ProductModule&#45;&gt;AppModule</title>
<path fill="none" stroke="#000000" d="M628,-122.0091C628,-138.0494 628,-159 628,-159 628,-159 693.0908,-159 693.0908,-159"/>
<polygon fill="#000000" stroke="#000000" points="693.0908,-162.5001 703.0908,-159 693.0907,-155.5001 693.0908,-162.5001"/>
</g>
<!-- SharedModule -->
<g id="node8" class="node">
<title>SharedModule</title>
<polygon fill="#8dd3c7" stroke="#000000" points="558.4231,-122 555.4231,-126 534.4231,-126 531.4231,-122 459.5769,-122 459.5769,-86 558.4231,-86 558.4231,-122"/>
<text text-anchor="middle" x="509" y="-99.8" font-family="Times,serif" font-size="14.00" fill="#000000">SharedModule</text>
</g>
<!-- SharedModule&#45;&gt;AppModule -->
<g id="edge7" class="edge">
<title>SharedModule&#45;&gt;AppModule</title>
<path fill="none" stroke="#000000" d="M509,-122.2667C509,-140.5552 509,-166 509,-166 509,-166 693.0799,-166 693.0799,-166"/>
<polygon fill="#000000" stroke="#000000" points="693.0799,-169.5001 703.0799,-166 693.0798,-162.5001 693.0799,-169.5001"/>
</g>
<!-- RouterModule.forRoot(args) -->
<g id="node9" class="node">
<title>RouterModule.forRoot(args)</title>
<polygon fill="#8dd3c7" stroke="#000000" points="441.8419,-122 438.8419,-126 417.8419,-126 414.8419,-122 264.1581,-122 264.1581,-86 441.8419,-86 441.8419,-122"/>
<text text-anchor="middle" x="353" y="-99.8" font-family="Times,serif" font-size="14.00" fill="#000000">RouterModule.forRoot(args)</text>
</g>
<!-- RouterModule.forRoot(args)&#45;&gt;AppModule -->
<g id="edge8" class="edge">
<title>RouterModule.forRoot(args)&#45;&gt;AppModule</title>
<path fill="none" stroke="#000000" d="M353,-122.1289C353,-142.5724 353,-173 353,-173 353,-173 693.0491,-173 693.0491,-173"/>
<polygon fill="#000000" stroke="#000000" points="693.0492,-176.5001 703.0491,-173 693.0491,-169.5001 693.0492,-176.5001"/>
</g>
<!-- ServiceWorkerModule.register(args) -->
<g id="node10" class="node">
<title>ServiceWorkerModule.register(args)</title>
<polygon fill="#8dd3c7" stroke="#000000" points="246.3954,-122 243.3954,-126 222.3954,-126 219.3954,-122 23.6046,-122 23.6046,-86 246.3954,-86 246.3954,-122"/>
<text text-anchor="middle" x="135" y="-99.8" font-family="Times,serif" font-size="14.00" fill="#000000">ServiceWorkerModule.register(args)</text>
</g>
<!-- ServiceWorkerModule.register(args)&#45;&gt;AppModule -->
<g id="edge9" class="edge">
<title>ServiceWorkerModule.register(args)&#45;&gt;AppModule</title>
<path fill="none" stroke="#000000" d="M135,-122.0109C135,-144.4852 135,-180 135,-180 135,-180 693.0722,-180 693.0722,-180"/>
<polygon fill="#000000" stroke="#000000" points="693.0723,-183.5001 703.0722,-180 693.0722,-176.5001 693.0723,-183.5001"/>
</g>
</g>
</svg>
