<?xml version="1.0" encoding="UTF-8" standalone="no"?>
<!DOCTYPE svg PUBLIC "-//W3C//DTD SVG 1.1//EN"
 "http://www.w3.org/Graphics/SVG/1.1/DTD/svg11.dtd">
<!-- Generated by graphviz version 2.40.1 (20161225.0304)
 -->
<!-- Title: dependencies Pages: 1 -->
<svg width="1595pt" height="284pt"
 viewBox="0.00 0.00 1595.00 284.00" xmlns="http://www.w3.org/2000/svg" xmlns:xlink="http://www.w3.org/1999/xlink">
<g id="graph0" class="graph" transform="scale(1 1) rotate(0) translate(4 280)">
<title>dependencies</title>
<polygon fill="#ffffff" stroke="transparent" points="-4,4 -4,-280 1591,-280 1591,4 -4,4"/>
<text text-anchor="start" x="772.5091" y="-42.4" font-family="sans-serif" font-weight="bold" font-size="14.00" fill="#000000">Legend</text>
<polygon fill="#ffffb3" stroke="transparent" points="559.5,-10 559.5,-30 579.5,-30 579.5,-10 559.5,-10"/>
<text text-anchor="start" x="583.129" y="-15.4" font-family="sans-serif" font-size="14.00" fill="#000000"> &#160;Declarations</text>
<polygon fill="#8dd3c7" stroke="transparent" points="672.5,-10 672.5,-30 692.5,-30 692.5,-10 672.5,-10"/>
<text text-anchor="start" x="696.2251" y="-15.4" font-family="sans-serif" font-size="14.00" fill="#000000"> &#160;Module</text>
<polygon fill="#80b1d3" stroke="transparent" points="758.5,-10 758.5,-30 778.5,-30 778.5,-10 758.5,-10"/>
<text text-anchor="start" x="782.2812" y="-15.4" font-family="sans-serif" font-size="14.00" fill="#000000"> &#160;Bootstrap</text>
<polygon fill="#fdb462" stroke="transparent" points="855.5,-10 855.5,-30 875.5,-30 875.5,-10 855.5,-10"/>
<text text-anchor="start" x="879.1732" y="-15.4" font-family="sans-serif" font-size="14.00" fill="#000000"> &#160;Providers</text>
<polygon fill="#fb8072" stroke="transparent" points="951.5,-10 951.5,-30 971.5,-30 971.5,-10 951.5,-10"/>
<text text-anchor="start" x="975.2258" y="-15.4" font-family="sans-serif" font-size="14.00" fill="#000000"> &#160;Exports</text>
<g id="clust1" class="cluster">
<title>cluster_ProductModule</title>
<polygon fill="none" stroke="#000000" stroke-dasharray="1,5" points="8,-70 8,-268 1579,-268 1579,-70 8,-70"/>
</g>
<g id="clust2" class="cluster">
<title>cluster_ProductModule_declarations</title>
<polygon fill="none" stroke="#000000" points="714,-78 714,-130 1571,-130 1571,-78 714,-78"/>
</g>
<g id="clust8" class="cluster">
<title>cluster_ProductModule_imports</title>
<polygon fill="none" stroke="#000000" points="16,-78 16,-130 706,-130 706,-78 16,-78"/>
</g>
<g id="clust9" class="cluster">
<title>cluster_ProductModule_exports</title>
<polygon fill="none" stroke="#000000" points="630,-208 630,-260 816,-260 816,-208 630,-208"/>
</g>
<!-- ProductComponent -->
<g id="node1" class="node">
<title>ProductComponent</title>
<polygon fill="#ffffb3" stroke="#000000" points="1563.3809,-122 1438.6191,-122 1438.6191,-86 1563.3809,-86 1563.3809,-122"/>
<text text-anchor="middle" x="1501" y="-99.8" font-family="Times,serif" font-size="14.00" fill="#000000">ProductComponent</text>
</g>
<!-- ProductModule -->
<g id="node6" class="node">
<title>ProductModule</title>
<polygon fill="#8dd3c7" stroke="#000000" points="774.5982,-187 771.5982,-191 750.5982,-191 747.5982,-187 671.4018,-187 671.4018,-151 774.5982,-151 774.5982,-187"/>
<text text-anchor="middle" x="723" y="-164.8" font-family="Times,serif" font-size="14.00" fill="#000000">ProductModule</text>
</g>
<!-- ProductComponent&#45;&gt;ProductModule -->
<g id="edge1" class="edge">
<title>ProductComponent&#45;&gt;ProductModule</title>
<path fill="none" stroke="#000000" d="M1501,-122.0109C1501,-144.4852 1501,-180 1501,-180 1501,-180 784.6493,-180 784.6493,-180"/>
<polygon fill="#000000" stroke="#000000" points="784.6493,-176.5001 774.6493,-180 784.6492,-183.5001 784.6493,-176.5001"/>
</g>
<!-- ProductGalleryComponent -->
<g id="node2" class="node">
<title>ProductGalleryComponent</title>
<polygon fill="#ffffb3" stroke="#000000" points="1420.3585,-122 1253.6415,-122 1253.6415,-86 1420.3585,-86 1420.3585,-122"/>
<text text-anchor="middle" x="1337" y="-99.8" font-family="Times,serif" font-size="14.00" fill="#000000">ProductGalleryComponent</text>
</g>
<!-- ProductGalleryComponent&#45;&gt;ProductModule -->
<g id="edge2" class="edge">
<title>ProductGalleryComponent&#45;&gt;ProductModule</title>
<path fill="none" stroke="#000000" d="M1337,-122.1289C1337,-142.5724 1337,-173 1337,-173 1337,-173 784.5564,-173 784.5564,-173"/>
<polygon fill="#000000" stroke="#000000" points="784.5564,-169.5001 774.5564,-173 784.5564,-176.5001 784.5564,-169.5001"/>
</g>
<!-- ProductDetailComponent -->
<g id="node3" class="node">
<title>ProductDetailComponent</title>
<polygon fill="#ffffb3" stroke="#000000" points="1235.5884,-122 1076.4116,-122 1076.4116,-86 1235.5884,-86 1235.5884,-122"/>
<text text-anchor="middle" x="1156" y="-99.8" font-family="Times,serif" font-size="14.00" fill="#000000">ProductDetailComponent</text>
</g>
<!-- ProductDetailComponent&#45;&gt;ProductModule -->
<g id="edge3" class="edge">
<title>ProductDetailComponent&#45;&gt;ProductModule</title>
<path fill="none" stroke="#000000" d="M1156,-122.2667C1156,-140.5552 1156,-166 1156,-166 1156,-166 784.7998,-166 784.7998,-166"/>
<polygon fill="#000000" stroke="#000000" points="784.7999,-162.5001 774.7998,-166 784.7998,-169.5001 784.7999,-162.5001"/>
</g>
<!-- CartProductsComponent -->
<g id="node4" class="node">
<title>CartProductsComponent</title>
<polygon fill="#ffffb3" stroke="#000000" points="1058.4284,-122 903.5716,-122 903.5716,-86 1058.4284,-86 1058.4284,-122"/>
<text text-anchor="middle" x="981" y="-99.8" font-family="Times,serif" font-size="14.00" fill="#000000">CartProductsComponent</text>
</g>
<!-- CartProductsComponent&#45;&gt;ProductModule -->
<g id="edge4" class="edge">
<title>CartProductsComponent&#45;&gt;ProductModule</title>
<path fill="none" stroke="#000000" d="M981,-122.0091C981,-138.0494 981,-159 981,-159 981,-159 784.5901,-159 784.5901,-159"/>
<polygon fill="#000000" stroke="#000000" points="784.5901,-155.5001 774.5901,-159 784.59,-162.5001 784.5901,-155.5001"/>
</g>
<!-- CartCalculatorComponent -->
<g id="node5" class="node">
<title>CartCalculatorComponent</title>
<polygon fill="#ffffb3" stroke="#000000" points="885.7478,-122 722.2522,-122 722.2522,-86 885.7478,-86 885.7478,-122"/>
<text text-anchor="middle" x="804" y="-99.8" font-family="Times,serif" font-size="14.00" fill="#000000">CartCalculatorComponent</text>
</g>
<!-- CartCalculatorComponent&#45;&gt;ProductModule -->
<g id="edge5" class="edge">
<title>CartCalculatorComponent&#45;&gt;ProductModule</title>
<path fill="none" stroke="#000000" d="M748.3376,-122.1061C748.3376,-122.1061 748.3376,-140.991 748.3376,-140.991"/>
<polygon fill="#000000" stroke="#000000" points="744.8377,-140.9909 748.3376,-150.991 751.8377,-140.991 744.8377,-140.9909"/>
</g>
<!-- ProductGalleryComponent  -->
<g id="node12" class="node">
<title>ProductGalleryComponent </title>
<polygon fill="#fb8072" stroke="#000000" points="808.3588,-252 637.6412,-252 637.6412,-216 808.3588,-216 808.3588,-252"/>
<text text-anchor="middle" x="723" y="-229.8" font-family="Times,serif" font-size="14.00" fill="#000000">ProductGalleryComponent </text>
</g>
<!-- ProductModule&#45;&gt;ProductGalleryComponent  -->
<g id="edge11" class="edge">
<title>ProductModule&#45;&gt;ProductGalleryComponent </title>
<path fill="none" stroke="#000000" stroke-dasharray="5,2" d="M723,-187.1061C723,-187.1061 723,-205.991 723,-205.991"/>
<polygon fill="#000000" stroke="#000000" points="719.5001,-205.9909 723,-215.991 726.5001,-205.991 719.5001,-205.9909"/>
</g>
<!-- CommonModule -->
<g id="node7" class="node">
<title>CommonModule</title>
<polygon fill="#8dd3c7" stroke="#000000" points="697.6681,-122 694.6681,-126 673.6681,-126 670.6681,-122 586.3319,-122 586.3319,-86 697.6681,-86 697.6681,-122"/>
<text text-anchor="middle" x="642" y="-99.8" font-family="Times,serif" font-size="14.00" fill="#000000">CommonModule</text>
</g>
<!-- CommonModule&#45;&gt;ProductModule -->
<g id="edge6" class="edge">
<title>CommonModule&#45;&gt;ProductModule</title>
<path fill="none" stroke="#000000" d="M684.6424,-122.1061C684.6424,-122.1061 684.6424,-140.991 684.6424,-140.991"/>
<polygon fill="#000000" stroke="#000000" points="681.1424,-140.9909 684.6424,-150.991 688.1424,-140.991 681.1424,-140.9909"/>
</g>
<!-- RouterModule.forChild(args) -->
<g id="node8" class="node">
<title>RouterModule.forChild(args)</title>
<polygon fill="#8dd3c7" stroke="#000000" points="568.7323,-122 565.7323,-126 544.7323,-126 541.7323,-122 387.2677,-122 387.2677,-86 568.7323,-86 568.7323,-122"/>
<text text-anchor="middle" x="478" y="-99.8" font-family="Times,serif" font-size="14.00" fill="#000000">RouterModule.forChild(args)</text>
</g>
<!-- RouterModule.forChild(args)&#45;&gt;ProductModule -->
<g id="edge7" class="edge">
<title>RouterModule.forChild(args)&#45;&gt;ProductModule</title>
<path fill="none" stroke="#000000" d="M478,-122.0091C478,-138.0494 478,-159 478,-159 478,-159 661.3412,-159 661.3412,-159"/>
<polygon fill="#000000" stroke="#000000" points="661.3412,-162.5001 671.3412,-159 661.3411,-155.5001 661.3412,-162.5001"/>
</g>
<!-- SharedModule -->
<g id="node9" class="node">
<title>SharedModule</title>
<polygon fill="#8dd3c7" stroke="#000000" points="369.4231,-122 366.4231,-126 345.4231,-126 342.4231,-122 270.5769,-122 270.5769,-86 369.4231,-86 369.4231,-122"/>
<text text-anchor="middle" x="320" y="-99.8" font-family="Times,serif" font-size="14.00" fill="#000000">SharedModule</text>
</g>
<!-- SharedModule&#45;&gt;ProductModule -->
<g id="edge8" class="edge">
<title>SharedModule&#45;&gt;ProductModule</title>
<path fill="none" stroke="#000000" d="M320,-122.2667C320,-140.5552 320,-166 320,-166 320,-166 661.1398,-166 661.1398,-166"/>
<polygon fill="#000000" stroke="#000000" points="661.1399,-169.5001 671.1398,-166 661.1398,-162.5001 661.1399,-169.5001"/>
</g>
<!-- CheckoutModule -->
<g id="node10" class="node">
<title>CheckoutModule</title>
<polygon fill="#8dd3c7" stroke="#000000" points="252.7064,-122 249.7064,-126 228.7064,-126 225.7064,-122 139.2936,-122 139.2936,-86 252.7064,-86 252.7064,-122"/>
<text text-anchor="middle" x="196" y="-99.8" font-family="Times,serif" font-size="14.00" fill="#000000">CheckoutModule</text>
</g>
<!-- CheckoutModule&#45;&gt;ProductModule -->
<g id="edge9" class="edge">
<title>CheckoutModule&#45;&gt;ProductModule</title>
<path fill="none" stroke="#000000" d="M196,-122.1289C196,-142.5724 196,-173 196,-173 196,-173 661.0269,-173 661.0269,-173"/>
<polygon fill="#000000" stroke="#000000" points="661.027,-176.5001 671.0269,-173 661.0269,-169.5001 661.027,-176.5001"/>
</g>
<!-- RouterModule -->
<g id="node11" class="node">
<title>RouterModule</title>
<polygon fill="#8dd3c7" stroke="#000000" points="121.6528,-122 118.6528,-126 97.6528,-126 94.6528,-122 24.3472,-122 24.3472,-86 121.6528,-86 121.6528,-122"/>
<text text-anchor="middle" x="73" y="-99.8" font-family="Times,serif" font-size="14.00" fill="#000000">RouterModule</text>
</g>
<!-- RouterModule&#45;&gt;ProductModule -->
<g id="edge10" class="edge">
<title>RouterModule&#45;&gt;ProductModule</title>
<path fill="none" stroke="#000000" d="M73,-122.0109C73,-144.4852 73,-180 73,-180 73,-180 661.1797,-180 661.1797,-180"/>
<polygon fill="#000000" stroke="#000000" points="661.1797,-183.5001 671.1797,-180 661.1797,-176.5001 661.1797,-183.5001"/>
</g>
</g>
</svg>
