<?xml version="1.0" encoding="UTF-8" standalone="no"?>
<!DOCTYPE svg PUBLIC "-//W3C//DTD SVG 1.1//EN"
 "http://www.w3.org/Graphics/SVG/1.1/DTD/svg11.dtd">
<!-- Generated by graphviz version 2.40.1 (20161225.0304)
 -->
<!-- Title: dependencies Pages: 1 -->
<svg width="1022pt" height="284pt"
 viewBox="0.00 0.00 1022.00 284.00" xmlns="http://www.w3.org/2000/svg" xmlns:xlink="http://www.w3.org/1999/xlink">
<g id="graph0" class="graph" transform="scale(1 1) rotate(0) translate(4 280)">
<title>dependencies</title>
<polygon fill="#ffffff" stroke="transparent" points="-4,4 -4,-280 1018,-280 1018,4 -4,4"/>
<text text-anchor="start" x="486.0091" y="-42.4" font-family="sans-serif" font-weight="bold" font-size="14.00" fill="#000000">Legend</text>
<polygon fill="#ffffb3" stroke="transparent" points="273,-10 273,-30 293,-30 293,-10 273,-10"/>
<text text-anchor="start" x="296.629" y="-15.4" font-family="sans-serif" font-size="14.00" fill="#000000"> &#160;Declarations</text>
<polygon fill="#8dd3c7" stroke="transparent" points="386,-10 386,-30 406,-30 406,-10 386,-10"/>
<text text-anchor="start" x="409.7251" y="-15.4" font-family="sans-serif" font-size="14.00" fill="#000000"> &#160;Module</text>
<polygon fill="#80b1d3" stroke="transparent" points="472,-10 472,-30 492,-30 492,-10 472,-10"/>
<text text-anchor="start" x="495.7812" y="-15.4" font-family="sans-serif" font-size="14.00" fill="#000000"> &#160;Bootstrap</text>
<polygon fill="#fdb462" stroke="transparent" points="569,-10 569,-30 589,-30 589,-10 569,-10"/>
<text text-anchor="start" x="592.6732" y="-15.4" font-family="sans-serif" font-size="14.00" fill="#000000"> &#160;Providers</text>
<polygon fill="#fb8072" stroke="transparent" points="665,-10 665,-30 685,-30 685,-10 665,-10"/>
<text text-anchor="start" x="688.7258" y="-15.4" font-family="sans-serif" font-size="14.00" fill="#000000"> &#160;Exports</text>
<g id="clust1" class="cluster">
<title>cluster_IndexModule</title>
<polygon fill="none" stroke="#000000" stroke-dasharray="1,5" points="8,-70 8,-268 1006,-268 1006,-70 8,-70"/>
</g>
<g id="clust2" class="cluster">
<title>cluster_IndexModule_declarations</title>
<polygon fill="none" stroke="#000000" points="589,-78 589,-130 998,-130 998,-78 589,-78"/>
</g>
<g id="clust6" class="cluster">
<title>cluster_IndexModule_imports</title>
<polygon fill="none" stroke="#000000" points="16,-78 16,-130 581,-130 581,-78 16,-78"/>
</g>
<g id="clust7" class="cluster">
<title>cluster_IndexModule_exports</title>
<polygon fill="none" stroke="#000000" points="446,-208 446,-260 588,-260 588,-208 446,-208"/>
</g>
<!-- IndexComponent -->
<g id="node1" class="node">
<title>IndexComponent</title>
<polygon fill="#ffffb3" stroke="#000000" points="989.7078,-122 876.2922,-122 876.2922,-86 989.7078,-86 989.7078,-122"/>
<text text-anchor="middle" x="933" y="-99.8" font-family="Times,serif" font-size="14.00" fill="#000000">IndexComponent</text>
</g>
<!-- IndexModule -->
<g id="node4" class="node">
<title>IndexModule</title>
<polygon fill="#8dd3c7" stroke="#000000" points="562.926,-187 559.926,-191 538.926,-191 535.926,-187 471.074,-187 471.074,-151 562.926,-151 562.926,-187"/>
<text text-anchor="middle" x="517" y="-164.8" font-family="Times,serif" font-size="14.00" fill="#000000">IndexModule</text>
</g>
<!-- IndexComponent&#45;&gt;IndexModule -->
<g id="edge1" class="edge">
<title>IndexComponent&#45;&gt;IndexModule</title>
<path fill="none" stroke="#000000" d="M933,-122.2921C933,-144.2057 933,-178 933,-178 933,-178 573.1087,-178 573.1087,-178"/>
<polygon fill="#000000" stroke="#000000" points="573.1088,-174.5001 563.1087,-178 573.1087,-181.5001 573.1088,-174.5001"/>
</g>
<!-- HeaderComponent -->
<g id="node2" class="node">
<title>HeaderComponent</title>
<polygon fill="#ffffb3" stroke="#000000" points="858.7437,-122 737.2563,-122 737.2563,-86 858.7437,-86 858.7437,-122"/>
<text text-anchor="middle" x="798" y="-99.8" font-family="Times,serif" font-size="14.00" fill="#000000">HeaderComponent</text>
</g>
<!-- HeaderComponent&#45;&gt;IndexModule -->
<g id="edge2" class="edge">
<title>HeaderComponent&#45;&gt;IndexModule</title>
<path fill="none" stroke="#000000" d="M798,-122.1061C798,-141.3391 798,-169 798,-169 798,-169 572.7729,-169 572.7729,-169"/>
<polygon fill="#000000" stroke="#000000" points="572.7729,-165.5001 562.7729,-169 572.7729,-172.5001 572.7729,-165.5001"/>
</g>
<!-- NavbarComponent -->
<g id="node3" class="node">
<title>NavbarComponent</title>
<polygon fill="#ffffb3" stroke="#000000" points="719.0297,-122 596.9703,-122 596.9703,-86 719.0297,-86 719.0297,-122"/>
<text text-anchor="middle" x="658" y="-99.8" font-family="Times,serif" font-size="14.00" fill="#000000">NavbarComponent</text>
</g>
<!-- NavbarComponent&#45;&gt;IndexModule -->
<g id="edge3" class="edge">
<title>NavbarComponent&#45;&gt;IndexModule</title>
<path fill="none" stroke="#000000" d="M658,-122.027C658,-138.3976 658,-160 658,-160 658,-160 572.7787,-160 572.7787,-160"/>
<polygon fill="#000000" stroke="#000000" points="572.7787,-156.5001 562.7787,-160 572.7786,-163.5001 572.7787,-156.5001"/>
</g>
<!-- NavbarComponent  -->
<g id="node9" class="node">
<title>NavbarComponent </title>
<polygon fill="#fb8072" stroke="#000000" points="580.0288,-252 453.9712,-252 453.9712,-216 580.0288,-216 580.0288,-252"/>
<text text-anchor="middle" x="517" y="-229.8" font-family="Times,serif" font-size="14.00" fill="#000000">NavbarComponent </text>
</g>
<!-- IndexModule&#45;&gt;NavbarComponent  -->
<g id="edge8" class="edge">
<title>IndexModule&#45;&gt;NavbarComponent </title>
<path fill="none" stroke="#000000" stroke-dasharray="5,2" d="M517,-187.1061C517,-187.1061 517,-205.991 517,-205.991"/>
<polygon fill="#000000" stroke="#000000" points="513.5001,-205.9909 517,-215.991 520.5001,-205.991 513.5001,-205.9909"/>
</g>
<!-- CommonModule -->
<g id="node5" class="node">
<title>CommonModule</title>
<polygon fill="#8dd3c7" stroke="#000000" points="572.6681,-122 569.6681,-126 548.6681,-126 545.6681,-122 461.3319,-122 461.3319,-86 572.6681,-86 572.6681,-122"/>
<text text-anchor="middle" x="517" y="-99.8" font-family="Times,serif" font-size="14.00" fill="#000000">CommonModule</text>
</g>
<!-- CommonModule&#45;&gt;IndexModule -->
<g id="edge4" class="edge">
<title>CommonModule&#45;&gt;IndexModule</title>
<path fill="none" stroke="#000000" d="M517,-122.1061C517,-122.1061 517,-140.991 517,-140.991"/>
<polygon fill="#000000" stroke="#000000" points="513.5001,-140.9909 517,-150.991 520.5001,-140.991 513.5001,-140.9909"/>
</g>
<!-- ProductModule -->
<g id="node6" class="node">
<title>ProductModule</title>
<polygon fill="#8dd3c7" stroke="#000000" points="443.5982,-122 440.5982,-126 419.5982,-126 416.5982,-122 340.4018,-122 340.4018,-86 443.5982,-86 443.5982,-122"/>
<text text-anchor="middle" x="392" y="-99.8" font-family="Times,serif" font-size="14.00" fill="#000000">ProductModule</text>
</g>
<!-- ProductModule&#45;&gt;IndexModule -->
<g id="edge5" class="edge">
<title>ProductModule&#45;&gt;IndexModule</title>
<path fill="none" stroke="#000000" d="M392,-122.027C392,-138.3976 392,-160 392,-160 392,-160 461.1644,-160 461.1644,-160"/>
<polygon fill="#000000" stroke="#000000" points="461.1644,-163.5001 471.1644,-160 461.1644,-156.5001 461.1644,-163.5001"/>
</g>
<!-- SharedModule -->
<g id="node7" class="node">
<title>SharedModule</title>
<polygon fill="#8dd3c7" stroke="#000000" points="322.4231,-122 319.4231,-126 298.4231,-126 295.4231,-122 223.5769,-122 223.5769,-86 322.4231,-86 322.4231,-122"/>
<text text-anchor="middle" x="273" y="-99.8" font-family="Times,serif" font-size="14.00" fill="#000000">SharedModule</text>
</g>
<!-- SharedModule&#45;&gt;IndexModule -->
<g id="edge6" class="edge">
<title>SharedModule&#45;&gt;IndexModule</title>
<path fill="none" stroke="#000000" d="M273,-122.1061C273,-141.3391 273,-169 273,-169 273,-169 461.1055,-169 461.1055,-169"/>
<polygon fill="#000000" stroke="#000000" points="461.1055,-172.5001 471.1055,-169 461.1054,-165.5001 461.1055,-172.5001"/>
</g>
<!-- RouterModule.forChild(args) -->
<g id="node8" class="node">
<title>RouterModule.forChild(args)</title>
<polygon fill="#8dd3c7" stroke="#000000" points="205.7323,-122 202.7323,-126 181.7323,-126 178.7323,-122 24.2677,-122 24.2677,-86 205.7323,-86 205.7323,-122"/>
<text text-anchor="middle" x="115" y="-99.8" font-family="Times,serif" font-size="14.00" fill="#000000">RouterModule.forChild(args)</text>
</g>
<!-- RouterModule.forChild(args)&#45;&gt;IndexModule -->
<g id="edge7" class="edge">
<title>RouterModule.forChild(args)&#45;&gt;IndexModule</title>
<path fill="none" stroke="#000000" d="M115,-122.2921C115,-144.2057 115,-178 115,-178 115,-178 461.2769,-178 461.2769,-178"/>
<polygon fill="#000000" stroke="#000000" points="461.2769,-181.5001 471.2769,-178 461.2768,-174.5001 461.2769,-181.5001"/>
</g>
</g>
</svg>
